<svg width="175" height="39" fill="none" xmlns="http://www.w3.org/2000/svg"><path d="M17.402 37l-.994.107.096.893h.898v-1zm7.3 0v1h.895l.099-.89-.994-.11zm3.9-35l.994.11L29.72 1h-1.118v1zm-4.8 0V1H22.9l-.092.898.995.102zm-2.85 27.8l-.995.098 1.99.004-.995-.102zM18.202 2l.995-.098L19.108 1h-.906v1zm-5.3 0V1h-.908l-.087.904.995.096zm-2.65 27.6l-.994.106 1.99-.01-.996-.096zM7.302 2l.994-.106L8.201 1h-.899v1zm-5.35 0V1H.835l.123 1.11.994-.11zm3.9 35l-.994.11.1.89h.894v-1zm7.55 0v1h.899l.095-.893-.994-.107zm2-18.65l.994-.107h-1.988l.994.107zm2 19.65h7.3v-2h-7.3v2zm8.294-.89l3.9-35-1.988-.22-3.9 35 1.988.22zM28.602 1h-4.8v2h4.8V1zm-5.795.898l-2.85 27.8 1.99.204 2.85-27.8-1.99-.204zm-.86 27.804l-2.75-27.8-1.99.196 2.75 27.8 1.99-.196zM18.202 1h-5.3v2h5.3V1zm-6.295.904l-2.65 27.6 1.99.192 2.65-27.6-1.99-.192zm-.66 27.59l-2.95-27.6-1.99.212 2.95 27.6 1.99-.212zM7.301 1h-5.35v2h5.35V1zM.958 2.11l3.9 35 1.988-.22-3.9-35-1.988.22zM5.852 38h7.55v-2h-7.55v2zm8.544-.893l2-18.65-1.988-.214-2 18.65 1.988.214zm.012-18.65l2 18.65 1.988-.214-2-18.65-1.988.214zm26.518-8.407c0-1.126.25-1.702.513-1.994.243-.271.64-.456 1.337-.456v-2c-1.052 0-2.08.29-2.825 1.12-.726.807-1.025 1.956-1.025 3.33h2zm1.85-2.45c.698 0 1.094.185 1.337.456.262.292.513.868.513 1.994h2c0-1.374-.3-2.523-1.025-3.33-.744-.83-1.773-1.12-2.825-1.12v2zm1.85 2.45v18.9h2v-18.9h-2zm0 18.9c0 1.126-.25 1.702-.513 1.995-.243.27-.64.455-1.337.455v2c1.052 0 2.08-.29 2.825-1.12.726-.807 1.025-1.956 1.025-3.33h-2zm-1.85 2.45c-.698 0-1.094-.185-1.337-.455-.263-.293-.513-.87-.513-1.995h-2c0 1.374.3 2.523 1.025 3.33.744.83 1.773 1.12 2.825 1.12v-2zm-1.85-2.45v-18.9h-2v18.9h2zm-7.5-.35c0 2.967.783 5.445 2.422 7.186 1.648 1.75 4.029 2.614 6.928 2.614v-2c-2.5 0-4.295-.736-5.472-1.986-1.186-1.259-1.878-3.18-1.878-5.814h-2zm9.35 9.8c2.9 0 5.28-.864 6.928-2.614 1.64-1.741 2.422-4.22 2.422-7.186h-2c0 2.633-.692 4.555-1.878 5.814-1.177 1.25-2.971 1.986-5.472 1.986v2zm9.35-9.8V10.4h-2v18.2h2zm0-18.2c0-2.967-.783-5.445-2.422-7.186C48.056 1.464 45.675.6 42.776.6v2c2.5 0 4.295.736 5.472 1.986 1.186 1.259 1.878 3.18 1.878 5.814h2zM42.776.6c-2.9 0-5.28.864-6.928 2.614-1.64 1.741-2.422 4.22-2.422 7.186h2c0-2.633.692-4.555 1.878-5.814 1.177-1.25 2.971-1.986 5.472-1.986v-2zm-9.35 9.8v18.2h2V10.4h-2zM75.3 37v1h1.51l-.589-1.39-.92.39zm-4.25-17.1l-.425-.905-2.04.958 2.08.87.385-.923zM58.2 2V1h-1v1h1zm0 35h-1v1h1v-1zm5.5 0v1h1v-1h-1zm0-14.25v-1h-1v1h1zm6 14.25l-.949.316.228.684h.721v-1zm-6-19.25h-1v1h1v-1zM63.7 7V6h-1v1h1zm12.521 29.61c-.463-1.094-.52-2.159-.52-3.86h-2c0 1.699.041 3.134.678 4.64l1.842-.78zm-.52-3.86v-5.4h-2v5.4h2zm0-5.4c0-3.76-.931-6.979-4.265-8.373l-.772 1.846c2.167.905 3.036 2.986 3.036 6.527h2zm-4.226-6.545c2.933-1.376 4.175-4.188 4.175-8.005h-2c0 3.383-1.057 5.271-3.025 6.195l.85 1.81zM75.65 12.8v-2.75h-2v2.75h2zm0-2.75c0-2.83-.64-5.152-2.227-6.754C71.835 1.693 69.486 1 66.5 1v2c2.715 0 4.44.632 5.502 1.704 1.063 1.073 1.648 2.776 1.648 5.346h2zM66.5 1h-8.3v2h8.3V1zm-9.3 1v35h2V2h-2zm1 36h5.5v-2h-5.5v2zm6.5-1V22.75h-2V37h2zm-1-13.25h1.9v-2h-1.9v2zm1.9 0c1.105 0 1.65.263 1.969.646.358.43.631 1.247.631 2.804h2c0-1.693-.277-3.102-1.094-4.083-.856-1.03-2.11-1.367-3.506-1.367v2zm2.6 3.45v5.5h2v-5.5h-2zm0 5.5c0 1.44.05 2.346.148 3.024.101.702.252 1.138.403 1.592l1.898-.632c-.149-.446-.248-.735-.322-1.246-.077-.534-.127-1.328-.127-2.738h-2zm1.5 5.3h5.6v-2h-5.6v2zM66.35 8c.783 0 1.137.212 1.342.476.25.323.458.948.458 2.124h2c0-1.324-.217-2.499-.879-3.35-.707-.912-1.754-1.25-2.92-1.25v2zm1.8 2.6v3.45h2V10.6h-2zm0 3.45c0 1.276-.288 1.889-.592 2.197-.3.303-.807.503-1.708.503v2c1.15 0 2.292-.25 3.13-1.097.833-.842 1.17-2.079 1.17-3.603h-2zm-2.3 2.7H63.7v2h2.15v-2zm-1.15 1V7h-2v10.75h2zM63.7 8h2.65V6H63.7v2zm30.667 29l-.933.358.246.642h.687v-1zm5.65 0v1h1.47l-.539-1.367-.931.367zm-7.65-19.4l-.898-.44-.194.396.162.41.93-.366zm7.65-15.6l.898.44.707-1.44h-1.605v1zm-5.5 0V1h-.633l-.27.573.903.427zm-7.2 15.25h-1l1.905.427-.905-.427zm0-15.25h1V1h-1v1zm-5.5 0V1h-1v1h1zm0 35h-1v1h1v-1zm5.5 0v1h1v-1h-1zm0-10.75l-.883-.47-.117.22v.25h1zm1.7-3.2l.934-.358-.786-2.05-1.03 1.939.882.469zM94.367 38h5.65v-2h-5.65v2zm6.581-1.367l-7.65-19.4-1.86.734 7.65 19.4 1.86-.734zM93.265 18.04l7.65-15.6-1.796-.88-7.65 15.6 1.796.88zM100.017 1h-5.5v2h5.5V1zm-6.404.573l-7.2 15.25 1.809.854 7.2-15.25-1.809-.854zM88.317 17.25V2h-2v15.25h2zm-1-16.25h-5.5v2h5.5V1zm-6.5 1v35h2V2h-2zm1 36h5.5v-2h-5.5v2zm6.5-1V26.25h-2V37h2zm-.116-10.28l1.7-3.2-1.767-.94-1.7 3.2 1.767.94zm-.117-3.312l5.35 13.95 1.867-.716-5.35-13.95-1.867.716zm22.042 3.042h1v-1h-1v1zm-5.2 0v-1h-1v1h1zm11.15-14.95h-1v1h1v-1zm5.2 0v1h1v-1h-1zm-17.2-1.1c0 5.447 2.974 8.539 5.696 11.059 1.387 1.284 2.642 2.363 3.585 3.575.913 1.173 1.469 2.398 1.469 3.916h2c0-2.082-.787-3.726-1.89-5.144-1.073-1.378-2.505-2.611-3.805-3.815-2.653-2.455-5.055-5.038-5.055-9.591h-2zm10.75 18.55c0 1.127-.251 1.684-.505 1.961-.237.259-.633.439-1.345.439v2c1.038 0 2.068-.27 2.818-1.086.733-.798 1.032-1.94 1.032-3.314h-2zm-1.85 2.4c-.712 0-1.107-.18-1.344-.439-.255-.277-.506-.834-.506-1.961h-2c0 1.373.299 2.516 1.033 3.314.75.816 1.779 1.086 2.817 1.086v-2zm-1.85-2.4v-2.5h-2v2.5h2zm-1-3.5h-5.2v2h5.2v-2zm-6.2 1v2.15h2v-2.15h-2zm0 2.15c0 2.954.739 5.431 2.338 7.176 1.613 1.759 3.962 2.624 6.862 2.624v-2c-2.499 0-4.25-.735-5.387-1.976-1.151-1.255-1.813-3.178-1.813-5.824h-2zm9.2 9.8c2.901 0 5.25-.865 6.863-2.624 1.599-1.745 2.337-4.222 2.337-7.176h-2c0 2.646-.661 4.569-1.812 5.824-1.137 1.241-2.888 1.976-5.388 1.976v2zm9.2-9.8c0-5.447-2.973-8.539-5.695-11.059-1.388-1.284-2.643-2.363-3.586-3.575-.912-1.173-1.469-2.398-1.469-3.916h-2c0 2.082.788 3.726 1.891 5.144 1.072 1.378 2.505 2.611 3.805 3.815 2.653 2.455 5.054 5.038 5.054 9.591h2zm-10.75-18.55c0-1.146.235-1.726.48-2.014.216-.253.574-.436 1.27-.436v-2c-1.054 0-2.07.292-2.792 1.139-.692.812-.958 1.957-.958 3.311h2zm1.75-2.45c.696 0 1.055.183 1.271.436.245.288.479.868.479 2.014h2c0-1.354-.265-2.5-.957-3.311-.722-.847-1.739-1.139-2.793-1.139v2zm1.75 2.45v1.45h2v-1.45h-2zm1 2.45h5.2v-2h-5.2v2zm6.2-1v-1.1h-2v1.1h2zm0-1.1c0-2.95-.723-5.425-2.302-7.17-1.593-1.763-3.919-2.63-6.798-2.63v2c2.472 0 4.196.733 5.315 1.97 1.134 1.255 1.785 3.18 1.785 5.83h2zm-9.1-9.8c-2.878 0-5.204.867-6.798 2.63-1.578 1.745-2.302 4.22-2.302 7.17h2c0-2.65.652-4.575 1.786-5.83 1.119-1.237 2.843-1.97 5.314-1.97v-2zM127.728 22h-1v1h1v-1zm10 0v1h1v-1h-1zm0-5h1v-1h-1v1zm-10 0v-1h-1v1h1zm0 6h10v-2h-10v2zm11-1v-5h-2v5h2zm-1-6h-10v2h10v-2zm-11 1v5h2v-5h-2zm18.226 20h-1v1h1v-1zm5.5 0v1h1v-1h-1zm0-35h1V1h-1v1zm-5.5 0V1h-1v1h1zm0 36h5.5v-2h-5.5v2zm6.5-1V2h-2v35h2zm-1-36h-5.5v2h5.5V1zm-6.5 1v35h2V2h-2zm12.422 5h-1v1h1V7zm5.75 0h1V6h-1v1zm0 30h-1v1h1v-1zm5.5 0v1h1v-1h-1zm0-30V6h-1v1h1zm5.75 0v1h1V7h-1zm0-5h1V1h-1v1zm-17 0V1h-1v1h1zm0 6h5.75V6h-5.75v2zm4.75-1v30h2V7h-2zm1 31h5.5v-2h-5.5v2zm6.5-1V7h-2v30h2zm-1-29h5.75V6h-5.75v2zm6.75-1V2h-2v5h2zm-1-6h-17v2h17V1zm-18 1v5h2V2h-2z" fill="#fff"/></svg>