<svg width="105" height="104" fill="none" xmlns="http://www.w3.org/2000/svg"><path fill-rule="evenodd" clip-rule="evenodd" d="M43.415 11.724c8.36-.876 15.162 5.975 22.35 10.363 5.597 3.417 10.068 7.696 14.756 12.29C86.573 40.31 95.445 44.5 97.115 52.816c1.758 8.756-2.264 17.981-7.893 24.888-5.524 6.779-13.773 11.017-22.413 12.3-7.938 1.177-15.786-1.713-22.83-5.586-6.165-3.39-9.211-9.975-14.307-14.833-7.027-6.698-19.557-9.383-21.147-18.967C6.967 41.23 16.203 33.68 22.54 26.615c5.855-6.525 12.163-13.978 20.875-14.89z" fill="#F3EBFF"/><g clip-path="url(#clip0)"><path d="M34.067 54.2h1.59a20.047 20.047 0 007.125 8.666h-2.649c-.957 0-1.733.777-1.733 1.734v.07a6.067 6.067 0 00-5.2 5.996v3.467c0 .479.388.867.867.867h39.866a.867.867 0 00.867-.867v-3.466a6.067 6.067 0 00-5.2-5.998v-.07c0-.956-.776-1.733-1.733-1.733h-2.649a20.047 20.047 0 007.124-8.666h1.591a4.339 4.339 0 004.334-4.334v-6.933a4.339 4.339 0 00-4.334-4.333h-1.59A20.02 20.02 0 0059.2 27.16v-.694A3.467 3.467 0 0055.733 23h-3.466a3.467 3.467 0 00-3.467 3.466v.694A20.02 20.02 0 0035.658 38.6h-1.591a4.339 4.339 0 00-4.334 4.333v6.934a4.339 4.339 0 004.334 4.333zm.866 19.066v-2.6a4.34 4.34 0 013.471-4.246 8.648 8.648 0 003.484 6.846h-6.955zM69.6 66.42a4.34 4.34 0 013.467 4.246v2.6h-6.955A8.648 8.648 0 0069.6 66.42zm-1.733-.087a6.941 6.941 0 01-6.934 6.933H47.067a6.941 6.941 0 01-6.934-6.933V64.6h1.734v1.838c-.02.992.264 1.967.814 2.793a5.336 5.336 0 004.386 2.302h13.866a5.336 5.336 0 004.387-2.302c.549-.826.833-1.8.813-2.793V64.6h1.734v1.733zM64.4 64.6v1.838c.015.64-.16 1.27-.506 1.808a3.65 3.65 0 01-2.96 1.554H47.066a3.65 3.65 0 01-2.96-1.554 3.206 3.206 0 01-.507-1.808V64.6h2.285a19.861 19.861 0 0016.23 0H64.4zm9.533-24.267a2.6 2.6 0 012.6 2.6v6.934a2.6 2.6 0 01-2.6 2.6h-.947a19.9 19.9 0 000-12.134h.947zm-23.4-13.866c0-.958.776-1.734 1.734-1.734h3.466c.958 0 1.734.776 1.734 1.733v.308c-2.293-.41-4.64-.41-6.934 0v-.308zM54 28.2c10.052 0 18.2 8.148 18.2 18.2S64.052 64.6 54 64.6s-18.2-8.148-18.2-18.2c.011-10.047 8.153-18.19 18.2-18.2zM31.467 42.933a2.6 2.6 0 012.6-2.6h.947a19.9 19.9 0 000 12.134h-.947a2.6 2.6 0 01-2.6-2.6v-6.934z" fill="#000"/><path d="M54 60.267c7.658 0 13.867-6.209 13.867-13.867 0-7.658-6.209-13.867-13.867-13.867-7.658 0-13.867 6.209-13.867 13.867.01 7.654 6.212 13.858 13.867 13.867zm0-26c6.701 0 12.133 5.432 12.133 12.133 0 6.7-5.432 12.133-12.133 12.133-6.701 0-12.133-5.432-12.133-12.133.007-6.698 5.435-12.126 12.133-12.133z" fill="#000"/><path d="M54 56.8c5.744 0 10.4-4.656 10.4-10.4C64.4 40.656 59.744 36 54 36c-5.744 0-10.4 4.656-10.4 10.4.006 5.741 4.659 10.394 10.4 10.4zm0-19.067a8.667 8.667 0 11-8.667 8.667A8.676 8.676 0 0154 37.733zm0-6.066a.867.867 0 100-1.734.867.867 0 000 1.734zm-10.418 4.315a.867.867 0 10-1.226-1.226.867.867 0 001.226 1.226zM38.4 47.267a.867.867 0 100-1.734.867.867 0 000 1.733zm3.956 9.551a.867.867 0 101.226 1.226.867.867 0 00-1.226-1.226zM54 62.866a.867.867 0 100-1.733.867.867 0 000 1.733zm10.418-6.048a.867.867 0 101.225 1.226.867.867 0 00-1.225-1.226zm5.182-9.551a.867.867 0 100-1.734.867.867 0 000 1.733zm-3.956-11.285a.867.867 0 10-1.226-1.226.867.867 0 001.226 1.226z" fill="#000"/><path d="M48.8 47.267a.867.867 0 00.867-.867A4.339 4.339 0 0154 42.066a.867.867 0 100-1.733 6.074 6.074 0 00-6.067 6.067c0 .479.388.867.867.867z" fill="#FFCC16"/><path d="M33.2 35.133a2.6 2.6 0 100-5.2 2.6 2.6 0 000 5.2zm0-3.466a.867.867 0 110 1.733.867.867 0 010-1.733z" fill="#000"/><path d="M38.4 29.933a3.467 3.467 0 100-6.933 3.467 3.467 0 000 6.933zm0-5.2a1.733 1.733 0 110 3.467 1.733 1.733 0 010-3.467zM32.333 28.2a.867.867 0 100-1.733.867.867 0 000 1.733zM72.2 32.533a2.6 2.6 0 105.2 0 2.6 2.6 0 00-5.2 0zm2.6-.866a.867.867 0 110 1.733.867.867 0 010-1.733z" fill="#FFCC16"/><path d="M69.6 29.933a3.467 3.467 0 100-6.933 3.467 3.467 0 000 6.933zm0-5.2a1.733 1.733 0 110 3.467 1.733 1.733 0 010-3.467z" fill="#000"/><path d="M75.667 28.2a.867.867 0 100-1.733.867.867 0 000 1.733z" fill="#FFCC16"/></g><defs><clipPath id="clip0"><path fill="#fff" transform="translate(28 23)" d="M0 0h52v52H0z"/></clipPath></defs></svg>