<svg width="105" height="104" fill="none" xmlns="http://www.w3.org/2000/svg"><path fill-rule="evenodd" clip-rule="evenodd" d="M42.873 11.724c8.36-.876 15.162 5.975 22.35 10.363 5.597 3.417 10.068 7.696 14.756 12.29C86.03 40.31 94.903 44.5 96.573 52.816c1.758 8.756-2.264 17.981-7.893 24.888-5.524 6.779-13.773 11.017-22.413 12.3-7.938 1.177-15.786-1.713-22.83-5.586-6.165-3.39-9.211-9.975-14.307-14.833-7.027-6.698-19.557-9.383-21.147-18.967C6.425 41.23 15.66 33.68 21.998 26.615c5.855-6.525 12.163-13.978 20.875-14.89z" fill="#F3EBFF"/><g clip-path="url(#clip0)"><path d="M75.75 57.687c-.32 0-.626.066-.907.18a2.433 2.433 0 00-2.343-1.805c-.626 0-1.193.245-1.625.634a2.418 2.418 0 00-1.625-.634 2.41 2.41 0 00-.813.15v-4.094c5.387-2.661 8.126-4.888 8.126-6.618 0-2.472-1.569-12.69-1.635-13.124l-.106-.689h-.976c-2.747 0-5.33-1.069-7.272-3.012L66 28.101l-.574.574a10.248 10.248 0 01-3.489 2.29v-.09a4.067 4.067 0 00-4.062-4.063h-26a4.067 4.067 0 00-4.063 4.063v42.25a4.067 4.067 0 004.063 4.062h30.744v-.032l13.131.035v-2.982l1.3-1.733a5.718 5.718 0 001.138-3.413v-8.937a2.44 2.44 0 00-2.438-2.438zM66 30.363a11.813 11.813 0 007.425 2.942c.357 2.368 1.513 10.2 1.513 12.195 0 .62-1.761 2.373-6.5 4.8v-1.55A2.44 2.44 0 0066 46.312a2.44 2.44 0 00-2.438 2.438v1.55c-4.739-2.43-6.5-4.181-6.5-4.8 0-1.996 1.156-9.827 1.513-12.195A11.813 11.813 0 0066 30.363zm-8.713 30.369l.947 1.894a4.32 4.32 0 01.453 1.92v1.266h-26V34.937H56.69c-.14.95-.301 2.078-.462 3.25h-20.29v8.125h19.691c.242.555.717 1.153 1.434 1.792v11.208h.056a2.115 2.115 0 00-.056.468c0 .329.078.658.224.952zm-14.85-29.857v-2.438h4.876v2.438a2.44 2.44 0 01-2.438 2.437 2.44 2.44 0 01-2.438-2.437zm13.035 13.812h-17.91v-4.875H56.01c-.246 1.88-.459 3.695-.538 4.875zm3.215 4.665c.489.333 1.028.675 1.626 1.027v7.38a6.142 6.142 0 00-1.123-.106c-.173 0-.34.027-.502.067v-8.368zm3.25 1.934c.51.273 1.056.55 1.626.832v7.403a5.978 5.978 0 00-1.626-1.211v-7.024zm-1.624-20.411v.58c-.703.15-1.424.232-2.16.232h-.975l-.106.69-.142.935h-8.826a4.02 4.02 0 00.834-2.437v-2.438h8.937a2.44 2.44 0 012.438 2.438zm-30.876 42.25v-42.25a2.44 2.44 0 012.438-2.438h8.938v2.438c0 .918.317 1.757.833 2.437h-8.959c-.896 0-1.624.73-1.624 1.625v30.875c0 .897.728 1.625 1.625 1.625h26v.448c0 .873.204 1.747.593 2.529l1.844 3.713v1.435h-29.25a2.44 2.44 0 01-2.438-2.437zm47.126-4.063c0 .874-.289 1.74-.813 2.438l-1.625 2.167v1.893l-11.375-.03v-1.783l-2.014-4.055a4.094 4.094 0 01-.423-1.807v-3.338c0-.915-.217-1.83-.625-2.648l-.948-1.894a.5.5 0 01-.053-.224c0-.278.226-.503.58-.503a4.301 4.301 0 014.295 4.296v3.017h1.626V48.75a.813.813 0 011.624 0v13h1.626V58.5a.813.813 0 011.624 0v3.25h1.626V58.5a.813.813 0 011.624 0v3.25h1.626v-1.625a.813.813 0 011.624 0v8.937z" fill="#000"/><path d="M36.414 69.062h-.477c-.896 0-1.624.73-1.624 1.625v1.625c0 .897.728 1.625 1.624 1.625h.477c.433 0 .841-.169 1.148-.476l1.962-1.961-1.962-1.962a1.614 1.614 0 00-1.148-.476zm0 3.25h-.477v-1.625h.477l.812.813-.812.812zm9.274-3.25h-1.626c-.896 0-1.624.73-1.624 1.625v1.625c0 .897.728 1.625 1.624 1.625h1.626c.896 0 1.624-.728 1.624-1.625v-1.625c0-.896-.728-1.625-1.624-1.625zm-1.626 3.25v-1.625h1.626v1.625h-1.626zm9.751-3.25h-.477c-.433 0-.841.17-1.148.477l-1.962 1.96 1.962 1.962c.307.307.715.476 1.148.476h.477c.896 0 1.624-.728 1.624-1.625v-1.625c0-.896-.728-1.625-1.624-1.625zm-.477 3.25l-.812-.812.812-.813h.477v1.625h-.477z" fill="#000"/><path d="M44.875 31.687a.813.813 0 100-1.625.813.813 0 000 1.625z" fill="#FFCC16"/><path d="M72.262 36.324l-1.149-1.149-7.55 7.55-2.676-2.675-1.149 1.15 3.824 3.824 8.7-8.7zm-33.074 5.113h1.624v1.625h-1.624v-1.625zm6.5 0h1.624v1.625h-1.624v-1.625zm-3.25 0h1.624v1.625h-1.624v-1.625zm6.5 0h1.624v1.625h-1.624v-1.625zm3.25 0h1.624v1.625h-1.624v-1.625z" fill="#000"/><path d="M48.938 54.587V52a4.067 4.067 0 00-4.063-4.063A4.067 4.067 0 0040.812 52v2.587a2.434 2.434 0 00-1.624 2.288v4.875a2.44 2.44 0 002.437 2.437h6.5a2.44 2.44 0 002.438-2.437v-4.875a2.434 2.434 0 00-1.626-2.288zm-4.063-5.025A2.44 2.44 0 0147.313 52v2.437h-4.876V52a2.44 2.44 0 012.438-2.438zm4.063 12.188a.813.813 0 01-.813.812h-6.5a.813.813 0 01-.813-.812v-4.875c0-.449.365-.813.813-.813h6.5c.448 0 .813.364.813.813v4.875z" fill="#FFCC16"/></g><defs><clipPath id="clip0"><path fill="#fff" transform="translate(27 26)" d="M0 0h52v52H0z"/></clipPath></defs></svg>