<svg width="105" height="104" fill="none" xmlns="http://www.w3.org/2000/svg"><path fill-rule="evenodd" clip-rule="evenodd" d="M42.873 11.724c8.36-.876 15.162 5.975 22.35 10.363 5.597 3.417 10.068 7.696 14.756 12.29C86.03 40.31 94.903 44.5 96.573 52.816c1.758 8.756-2.264 17.981-7.893 24.888-5.524 6.779-13.773 11.017-22.413 12.3-7.938 1.177-15.786-1.713-22.83-5.586-6.165-3.39-9.211-9.975-14.307-14.833-7.027-6.698-19.557-9.383-21.147-18.967C6.425 41.23 15.66 33.68 21.998 26.615c5.855-6.525 12.163-13.978 20.875-14.89z" fill="#F3EBFF"/><g clip-path="url(#clip0)"><path d="M37.926 31.33a.762.762 0 000 1.077l2.088 2.088a.76.76 0 001.077 0l3.736-3.736a.762.762 0 10-1.077-1.077l-3.198 3.197-1.549-1.549a.762.762 0 00-1.077 0z" fill="#FFCC16"/><path d="M67.455 29.257a.762.762 0 00-1.078 0l-1.753 1.754-1.754-1.754a.762.762 0 00-1.077 1.078l1.754 1.753-1.754 1.754a.762.762 0 101.077 1.078l1.754-1.754 1.754 1.754a.762.762 0 001.077-1.078L65.7 32.088l1.754-1.753a.762.762 0 000-1.078zM54.6 49.464v-5.152c0-1.023-.892-1.855-1.989-1.855h-.82c-.462 0-.888.15-1.226.398a2.067 2.067 0 00-1.227-.398h-.82c-.463 0-.888.15-1.227.398a2.067 2.067 0 00-1.226-.398h-.82c-.16 0-.316.02-.465.053v-3.333h2.117a1.57 1.57 0 001.568-1.568V26.568A1.57 1.57 0 0046.897 25h-5.163a.762.762 0 100 1.523h5.163c.025 0 .045.02.045.045v11.041c0 .025-.02.045-.045.045H44.78v-.275c0-1.414-1.076-2.565-2.399-2.565-1.322 0-2.398 1.15-2.398 2.565v.275h-4.127a.045.045 0 01-.045-.045V26.568c0-.025.02-.045.044-.045h2.833a.762.762 0 100-1.523h-2.833a1.57 1.57 0 00-1.567 1.568v11.041a1.57 1.57 0 001.568 1.568h4.127v9.197L37.78 47.3c-.906-.44-1.974-.22-2.66.549a2.606 2.606 0 00.03 3.472l4.276 4.63c.354.383.557.922.557 1.478v3.261h-.575c-.79 0-1.431.642-1.431 1.432v13.446c0 .79.642 1.431 1.431 1.431H53.66c.79 0 1.432-.642 1.432-1.431V62.122c0-.789-.642-1.43-1.432-1.43h-.696v-1.547c0-.487.132-.954.38-1.35l.875-1.399a.762.762 0 00-1.291-.808l-.875 1.398a4.06 4.06 0 00-.612 2.159v1.546h-9.934V57.43c0-.949-.341-1.84-.961-2.512l-4.276-4.63c-.354-.383-.359-1.035-.011-1.425.23-.258.565-.333.855-.193l3.298 1.606a.764.764 0 001.095-.684V37.379c0-.574.393-1.042.875-1.042.483 0 .875.468.875 1.042v12.213a.762.762 0 101.524 0v-5.28c0-.157.19-.332.465-.332h.82c.274 0 .465.175.465.332v5.28a.762.762 0 101.523 0v-5.28c0-.157.191-.332.465-.332h.82c.274 0 .465.175.465.332v5.28a.762.762 0 101.523 0v-5.28c0-.157.191-.332.465-.332h.82c.274 0 .465.175.465.332v5.28a.81.81 0 00.042.247l.671 1.953c.155.45.215.94.175 1.42a.762.762 0 001.519.126 5.045 5.045 0 00-.253-2.042l-.63-1.832zm-1.033 26.012H39.5V62.215h14.067v13.261z" fill="#000"/><path d="M42.12 65.447a.76.76 0 00-.762.761v1.195a.762.762 0 101.523 0v-1.195a.76.76 0 00-.761-.761zm28.83-34.119a.763.763 0 00.763-.762v-3.998A1.57 1.57 0 0070.145 25H59.103a1.57 1.57 0 00-1.568 1.568v11.041a1.57 1.57 0 001.568 1.568h11.042a1.57 1.57 0 001.568-1.568v-3.998a.762.762 0 10-1.524 0v3.998c0 .025-.02.045-.044.045H59.103a.045.045 0 01-.044-.045V26.568c0-.025.02-.045.044-.045h11.042c.024 0 .044.02.044.045v3.998c0 .42.341.762.762.762z" fill="#000"/></g><defs><clipPath id="clip0"><path fill="#fff" transform="translate(27 25)" d="M0 0h52v52H0z"/></clipPath></defs></svg>