<svg width="105" height="104" fill="none" xmlns="http://www.w3.org/2000/svg"><path fill-rule="evenodd" clip-rule="evenodd" d="M42.873 11.664c8.36-.876 15.162 5.974 22.35 10.362 5.597 3.418 10.068 7.696 14.756 12.291 6.052 5.932 14.924 10.123 16.594 18.438 1.758 8.757-2.264 17.982-7.893 24.889-5.524 6.778-13.773 11.016-22.413 12.299-7.938 1.178-15.786-1.713-22.83-5.585-6.165-3.39-9.211-9.975-14.307-14.834-7.027-6.698-19.557-9.383-21.147-18.967-1.558-9.386 7.678-16.937 14.015-24.002 5.855-6.526 12.163-13.978 20.875-14.891z" fill="#F3EBFF"/><g clip-path="url(#clip0)"><path d="M61.994 55.978h-3.117l-1.619-.72v-1.966a10.996 10.996 0 004.971-5.725h1.389a6.005 6.005 0 005.999-5.999 5.999 5.999 0 00-2.809-5.076v-.684C66.808 27.643 60.165 21 52 21s-14.808 6.643-14.808 14.808v.684a5.998 5.998 0 00-2.81 5.076 6.005 6.005 0 006 5.999h1.389a10.996 10.996 0 004.97 5.725v1.958l-1.637.728h-3.098C33.18 55.978 26 63.158 26 71.984c0 .561.455 1.016 1.016 1.016H47.43a1.016 1.016 0 000-2.031H28.068c.506-7.02 6.22-12.618 13.286-12.944l-.009.025c-.082.29-.032.6.137.85l4.804 7.063a1.016 1.016 0 001.558.147l4.147-4.147 4.146 4.147a1.016 1.016 0 001.558-.147L62.5 58.9c.169-.25.22-.56.137-.85l-.009-.025c7.075.317 12.797 5.919 13.304 12.944H56.57a1.016 1.016 0 000 2.031h20.414c.561 0 1.016-.455 1.016-1.016 0-8.825-7.18-16.006-16.006-16.006zM60.88 36.805a11.742 11.742 0 01-5.708-2.434 1.015 1.015 0 00-1.248-.01 12.295 12.295 0 01-7.548 2.56 12.42 12.42 0 01-3.253-.435v-.516c0-4.894 3.982-8.876 8.877-8.876 4.894 0 8.876 3.982 8.876 8.876 0 0 .002.808.004.835zm2.738 8.73h-.686v-7.934h.686a3.972 3.972 0 013.967 3.968 3.972 3.972 0 01-3.967 3.967zM52 23.032c7.003 0 12.708 5.664 12.775 12.652a5.998 5.998 0 00-1.157-.113h-.719c-.211-5.83-5.019-10.508-10.9-10.508-5.88 0-10.688 4.678-10.9 10.508h-.718c-.395 0-.782.04-1.156.113C39.292 28.695 44.997 23.03 52 23.03zM41.067 45.536h-.686a3.972 3.972 0 01-3.967-3.968 3.972 3.972 0 013.967-3.967h.687v7.935zM43.1 43.71v-5.133c1.07.248 2.167.374 3.277.374 2.947 0 5.752-.87 8.157-2.523a13.751 13.751 0 006.367 2.426v4.91a8.867 8.867 0 01-.445 2.729h-4.85a3.06 3.06 0 00-2.88-2.04h-1.36a3.058 3.058 0 00-3.055 3.056 3.058 3.058 0 003.055 3.055h1.36a3.06 3.06 0 002.88-2.04h3.879A8.901 8.901 0 0152 52.611c-4.908 0-8.901-3.993-8.901-8.901zm10.65 3.799c0 .564-.46 1.023-1.025 1.023h-1.36a1.025 1.025 0 010-2.047h1.36c.565 0 1.024.459 1.024 1.024zM52 54.642c1.123 0 2.206-.17 3.227-.486v1.698L51.99 59.09l-3.218-3.218v-1.716c1.02.316 2.104.486 3.227.486zm-4.724 9.163l-3.43-5.043 3.421-1.523 3.288 3.288-3.28 3.279zm9.43 0l-3.279-3.278 3.288-3.288 3.422 1.523-3.431 5.044z" fill="#000"/><path d="M52 70.969c-.267 0-.53.108-.718.297-.189.19-.298.451-.298.718a1.018 1.018 0 001.734.718c.189-.189.298-.45.298-.718 0-.267-.109-.529-.298-.718A1.022 1.022 0 0052 70.97z" fill="#FFCC16"/></g><defs><clipPath id="clip0"><path fill="#fff" transform="translate(26 21)" d="M0 0h52v52H0z"/></clipPath></defs></svg>