<?xml version="1.0" encoding="utf-8"?>
<!-- Generator: Adobe Illustrator 25.0.1, SVG Export Plug-In . SVG Version: 6.00 Build 0)  -->
<svg version="1.1" id="Layer_1" xmlns="http://www.w3.org/2000/svg" xmlns:xlink="http://www.w3.org/1999/xlink" x="0px" y="0px"
	 viewBox="0 0 188 36" style="enable-background:new 0 0 188 36;" xml:space="preserve">
<style type="text/css">
	.st0{clip-path:url(#SVGID_2_);}
</style>
<g>
	<defs>
		<rect id="SVGID_1_" x="1" y="5" width="186" height="24.2"/>
	</defs>
	<clipPath id="SVGID_2_">
		<use xlink:href="#SVGID_1_"  style="overflow:visible;"/>
	</clipPath>
	<g class="st0">
		<path d="M9.8,25.5h3.1V7.8H8.3c-4.5,0-6.9,2.3-6.9,5.7c0,2.7,1.3,4.3,3.6,6l-4.1,6h3.4l4.5-6.7l-1.6-1c-1.9-1.3-2.8-2.3-2.8-4.4
			c0-1.9,1.3-3.2,3.9-3.2h1.4V25.5z M69.6,25.7c1.4,0,2.4-0.3,3.2-0.8v-2.5c-0.8,0.5-1.7,0.9-3,0.9c-2.2,0-3.1-1.7-3.1-4.3
			c0-2.8,1.1-4.2,3.1-4.2c1.2,0,2.3,0.4,3,0.8V13c-0.6-0.4-1.8-0.6-3.3-0.6c-3.9,0-5.9,2.8-5.9,6.7C63.6,23.4,65.5,25.7,69.6,25.7z
			 M50.5,24.6v-2.5c-0.9,0.6-2.5,1.2-4,1.2c-2.2,0-3.1-1-3.2-3.2h7.4v-1.6c0-4.5-2-6.1-5-6.1c-3.7,0-5.5,2.8-5.5,6.7
			c0,4.5,2.2,6.6,6.1,6.6C48.2,25.7,49.6,25.2,50.5,24.6z M22.6,12.7v5.1h-4.1v-5.1h-3.1v12.8h3.1v-5.3h4.1v5.3h3.1V12.7H22.6z
			 M39.4,23.1H38V12.7h-8.9v1.1c0,3.1-0.2,7.2-1.3,9.3h-0.9v5.3h2.8v-2.9h6.9v2.9h2.8V23.1z M60.3,25.5h3.5l-4.9-6.9l4.3-5.9h-3.1
			l-4.3,5.9v-5.9h-3.1v12.8h3.1v-6.3L60.3,25.5z M45.6,14.8c1.5,0,2,1.2,2,2.9v0.3h-4.3C43.4,15.9,44.1,14.8,45.6,14.8z M35,23.1
			h-4.3c0.8-1.9,1.1-5.4,1.1-7.6v-0.4H35V23.1z"/>
		<path d="M93.5,21.6l1.4-5.1l-6.4,9l-4.3-1.5l1.4-5.2l-3.8,4.5c2.1,3.2,5.8,5.4,9.9,5.4c6.5,0,11.7-5.1,11.8-11.5L97,23.6
			L93.5,21.6z"/>
		<path d="M89.9,13.6l-0.6,4l6.3-8.9l4.4,1.6l-1,5.9l3.9-3.8C101,8,96.8,5,91.8,5C85.3,5,80,10.3,80,16.7c0,0.8,0.1,1.6,0.2,2.3
			l6.3-7.4L89.9,13.6z"/>
		<path d="M117.6,25.5h2.6l3.6-13.4v13.4h2.9V7.8h-4l-3.6,13l-3.6-13h-4.1v17.7h2.5V12.2L117.6,25.5z"/>
		<path d="M138.9,16.8c0-3.1-1.6-4.3-4.8-4.3c-2,0-3.6,0.6-4.5,1.2v2.5c0.8-0.6,2.6-1.3,4.2-1.3c1.5,0,2.1,0.5,2.1,1.9v0.7h-0.5
			c-4.7,0-6.7,1.5-6.7,4.1s1.6,4,4,4c1.8,0,2.6-0.6,3.2-1.2h0.1c0,0.3,0.1,0.8,0.2,1h3c-0.1-1-0.2-2.1-0.2-3.1V16.8z M135.9,22.5
			c-0.4,0.6-1.1,1-2.2,1c-1.3,0-1.9-0.8-1.9-1.9c0-1.5,1.1-2,3.7-2h0.4V22.5z"/>
		<path d="M144.2,12.7h-2.8v16.5h3.1V24c0.8,1.1,1.9,1.8,3.2,1.8c3,0,5-2.4,5-6.7c0-4.3-2-6.6-4.9-6.6c-1.4,0-2.6,0.7-3.4,1.9
			L144.2,12.7z M146.9,23.4c-1.6,0-2.4-1.3-2.4-4.3c0-3,0.9-4.3,2.6-4.3c1.7,0,2.5,1.3,2.5,4.3C149.5,22.1,148.6,23.4,146.9,23.4z"
			/>
		<path d="M162.3,25.5h3.5l-4.9-6.9l4.3-5.9h-3.1l-4.3,5.9v-5.9h-3.1v12.8h3.1v-6.3L162.3,25.5z"/>
		<path d="M176,24.7v-2.5c-0.9,0.6-2.5,1.2-4,1.2c-2.2,0-3.1-1-3.2-3.2h7.4v-1.6c0-4.5-2-6.1-5-6.1c-3.7,0-5.5,2.8-5.5,6.7
			c0,4.5,2.2,6.6,6.1,6.6C173.7,25.8,175.1,25.3,176,24.7z M171.1,14.9c1.5,0,2,1.2,2,2.9V18h-4.3C168.9,15.9,169.6,14.9,171.1,14.9
			z"/>
		<path d="M187,15.1v-2.4h-10.2v2.4h3.6v10.4h3.1V15.1H187z"/>
	</g>
</g>
</svg>
